<svg id="Layer_1" enable-background="new 0 0 512 512" height="512" viewBox="0 0 512 512" width="512" xmlns="http://www.w3.org/2000/svg"><g><path d="m193.341 438.704c2.115-1.121 4.314-2.727 6.512-4.791l43.028-40.426-49.069-33.774z"/><path d="m119.898 301.456 42.563 97.43.406-68.117c.001-.17.021-.334.028-.502-.008-4.351 1.786-8.529 5.017-11.492l113.034-103.684z"/><path d="m510.256 42.491c-.916-1.125-2.656-1.695-5.174-1.695-2.732 0-6.07.717-9.656 2.076l-485.455 184.111c-13.335 5.058-13.288 13.206.105 18.106l88.613 32.433 276.65-148.358c6.91-3.706 15.5-1.689 20.039 4.706s3.609 15.169-2.17 20.47l-189.865 174.159 199.179 137.095c.164.114.326.231.486.351 4.543 3.393 9.125 5.26 12.902 5.26 8.623-.001 11.719-10.46 12.648-14.956l82.68-399.886c1.541-7.448.502-12.05-.982-13.872z"/></g></svg>