<svg id="Layer_1" enable-background="new 0 0 511.987 511.987" height="512" viewBox="0 0 511.987 511.987" width="512" xmlns="http://www.w3.org/2000/svg"><path d="m508.293 100.591c-4.651-5.334-12.396-6.691-18.586-3.258-.533.296-1.071.586-1.611.87 5.336-8.726 9.487-18.213 12.293-28.246 1.629-5.823-.398-12.056-5.142-15.806-4.741-3.751-11.274-4.287-16.565-1.359-16.229 8.979-33.428 16.072-51.234 21.139-20.994-19.072-48.629-29.857-77.146-29.857-63.2 0-114.617 51.417-114.617 114.616 0 2.218.064 4.435.191 6.646-70.906-4.906-135.231-39.735-178.498-97.241-2.607-3.562-6.69-5.835-11.186-6.109-5.392-.342-10.556 2.27-13.5 6.807-11.781 18.157-18.008 39.241-18.008 60.971 0 19.958 5.329 39.18 14.962 55.919-1.844.009-3.703.357-5.481 1.066-5.568 2.219-9.28 7.539-9.441 13.531-.027 1.005-.041 2.011-.041 3.021 0 35.378 16.438 67.405 42.647 88.098-1.64 3.291-2.038 7.124-1.013 10.763 6.481 22.989 20.52 43.721 39.529 58.376 7.708 5.942 16.015 10.794 24.764 14.499-30.578 13.273-63.686 20.179-97.502 20.179-2.572 0-5.146-.039-7.65-.115-6.774-.188-12.836 4.148-14.808 10.627-1.971 6.479.644 13.476 6.381 17.073 47.057 29.514 101.428 45.114 157.235 45.114 79.146 0 153.554-30.821 209.519-86.785 55.966-55.964 86.787-130.373 86.787-209.52 0-.729-.003-1.459-.008-2.191 18.181-14.548 34.444-31.327 48.423-49.97 4.247-5.664 3.957-13.523-.694-18.858z"/></svg>